<svg width="680" height="100" viewBox="0 0 680 100" role="img" xmlns="http://www.w3.org/2000/svg">
<title>Build Anyway — horizontal header logo</title>
<desc>Build Anyway horizontal lockup — geometric lotus mark left, wordmark right</desc>



<g transform="translate(50,50)">

  <circle r="34" stroke="#C8A96E" stroke-width="0.5" fill="none" opacity="0.18"/>
  <circle r="24" stroke="#C8A96E" stroke-width="0.35" fill="none" opacity="0.14"/>
  <circle r="9"  stroke="#C8A96E" stroke-width="0.3"  fill="none" opacity="0.16"/>

  <g stroke="#C8A96E" stroke-width="0.6" fill="#C8A96E" fill-opacity="0.08">
    <path d="M 0,-34 L 5,-4 L 0,0 L -5,-4 Z"/>
    <g transform="rotate(60)"> <path d="M 0,-34 L 5,-4 L 0,0 L -5,-4 Z"/></g>
    <g transform="rotate(120)"><path d="M 0,-34 L 5,-4 L 0,0 L -5,-4 Z"/></g>
    <g transform="rotate(180)"><path d="M 0,-34 L 5,-4 L 0,0 L -5,-4 Z"/></g>
    <g transform="rotate(240)"><path d="M 0,-34 L 5,-4 L 0,0 L -5,-4 Z"/></g>
    <g transform="rotate(300)"><path d="M 0,-34 L 5,-4 L 0,0 L -5,-4 Z"/></g>
  </g>

  <g transform="rotate(30)" stroke="#C8A96E" stroke-width="0.5" fill="#C8A96E" fill-opacity="0.22">
    <path d="M 0,-24 L 3,-4 L 0,0 L -3,-4 Z"/>
    <g transform="rotate(60)"> <path d="M 0,-24 L 3,-4 L 0,0 L -3,-4 Z"/></g>
    <g transform="rotate(120)"><path d="M 0,-24 L 3,-4 L 0,0 L -3,-4 Z"/></g>
    <g transform="rotate(180)"><path d="M 0,-24 L 3,-4 L 0,0 L -3,-4 Z"/></g>
    <g transform="rotate(240)"><path d="M 0,-24 L 3,-4 L 0,0 L -3,-4 Z"/></g>
    <g transform="rotate(300)"><path d="M 0,-24 L 3,-4 L 0,0 L -3,-4 Z"/></g>
  </g>

  <circle r="3" fill="#C8A96E"/>
  <circle r="1.2" fill="transparent"/>

</g>

<line x1="94" y1="22" x2="94" y2="78" stroke="#1e2a3a" stroke-width="0.5"/>

<text
  x="110" y="44"
  text-anchor="start"
  font-family="Georgia, 'Times New Roman', serif"
  font-size="26"
  font-weight="700"
  letter-spacing="5"
  fill="#E8E0D0">BUILD</text>

<text
  x="110" y="72"
  text-anchor="start"
  font-family="Georgia, 'Times New Roman', serif"
  font-size="26"
  font-weight="700"
  letter-spacing="3"
  fill="#C8A96E">ANYWAY</text>

<line x1="314" y1="22" x2="314" y2="78" stroke="#1e2a3a" stroke-width="0.5"/>

<text
  x="330" y="56"
  text-anchor="start"
  font-family="'Courier New', Courier, monospace"
  font-size="13"
  letter-spacing="3"
  fill="#9aaabf">ENTREPRENEURSHIP FOR RECOVERY</text>

</svg>
