<svg xmlns="http://www.w3.org/2000/svg" viewBox="0 0 400 240">
  <defs>
    <linearGradient id="biomarkerGrad" x1="0" y1="0" x2="1" y2="1">
      <stop offset="0" stop-color="#0A4699"/>
      <stop offset="1" stop-color="#4D99FF"/>
    </linearGradient>
  </defs>
  <rect width="400" height="240" rx="20" fill="url(#biomarkerGrad)" opacity="0.1"/>
  
  <g transform="translate(150,80)">
    <circle cx="50" cy="50" r="40" stroke="#60a5fa" stroke-width="3" fill="none" opacity="0.8"/>
    <circle cx="50" cy="50" r="25" fill="#1a7cff" opacity="0.3"/>
    <text x="50" y="55" text-anchor="middle" fill="#60a5fa" font-size="10" font-weight="bold">DATA</text>
    <text x="50" y="65" text-anchor="middle" fill="#60a5fa" font-size="10" font-weight="bold">HUB</text>
  </g>
  
  <g stroke="#60a5fa" stroke-width="2" fill="none">
    <rect x="30" y="30" width="70" height="40" rx="8" opacity="0.6"/>
    <text x="65" y="55" text-anchor="middle" fill="#60a5fa" font-size="9">Wearables</text>
    <path d="M100,50 L150,100" stroke-dasharray="3,3" opacity="0.5"/>
    
    <rect x="30" y="150" width="70" height="40" rx="8" opacity="0.6"/>
    <text x="65" y="175" text-anchor="middle" fill="#60a5fa" font-size="9">Lab Tests</text>
    <path d="M100,170 L150,150" stroke-dasharray="3,3" opacity="0.5"/>
    
    <rect x="300" y="30" width="70" height="40" rx="8" opacity="0.6"/>
    <text x="335" y="55" text-anchor="middle" fill="#60a5fa" font-size="9">Genetics</text>
    <path d="M300,50 L250,100" stroke-dasharray="3,3" opacity="0.5"/>
    
    <rect x="300" y="150" width="70" height="40" rx="8" opacity="0.6"/>
    <text x="335" y="175" text-anchor="middle" fill="#60a5fa" font-size="9">Environment</text>
    <path d="M300,170 L250,150" stroke-dasharray="3,3" opacity="0.5"/>
  </g>
  
  <g transform="translate(130,180)">
    <rect x="0" y="0" width="140" height="45" rx="8" stroke="#60a5fa" stroke-width="2" fill="none" opacity="0.6"/>
    <text x="70" y="18" text-anchor="middle" fill="#60a5fa" font-size="10" font-weight="bold">INSIGHTS</text>
    <g transform="translate(10,25)">
      <rect x="0" y="0" width="35" height="4" rx="2" fill="#60a5fa" opacity="0.7"/>
      <rect x="40" y="0" width="25" height="4" rx="2" fill="#60a5fa" opacity="0.7"/>
      <rect x="70" y="0" width="45" height="4" rx="2" fill="#60a5fa" opacity="0.7"/>
    </g>
  </g>
</svg>
