<svg xmlns="http://www.w3.org/2000/svg" viewBox="0 0 400 240">
  <defs>
    <linearGradient id="orbElderGrad" x1="0" y1="0" x2="1" y2="1">
      <stop offset="0" stop-color="#0A4699"/>
      <stop offset="1" stop-color="#4D99FF"/>
    </linearGradient>
    <filter id="orbGlow">
      <feGaussianBlur stdDeviation="2"/>
    </filter>
  </defs>
  <rect width="400" height="240" rx="20" fill="url(#orbElderGrad)" opacity="0.1"/>
  
  <g transform="translate(80,60)">
    <circle cx="60" cy="60" r="50" stroke="#60a5fa" stroke-width="3" fill="none" opacity="0.8" filter="url(#orbGlow)"/>
    <circle cx="60" cy="60" r="35" fill="#1a7cff" opacity="0.3"/>
    
    <circle cx="45" cy="45" r="5" fill="#60a5fa"/>
    <circle cx="75" cy="45" r="5" fill="#60a5fa"/>
    
    <g stroke="#60a5fa" stroke-width="2" fill="none">
      <path d="M 45,70 L 50,70 L 53,65 L 56,78 L 59,65 L 62,70 L 75,70"/>
    </g>
    
    <rect x="30" y="110" width="60" height="12" rx="6" fill="#60a5fa" opacity="0.6"/>
    
    <g transform="translate(150,10)">
      <rect x="0" y="0" width="100" height="60" rx="8" stroke="#60a5fa" stroke-width="2" fill="none" opacity="0.6"/>
      <text x="50" y="20" text-anchor="middle" fill="#60a5fa" font-size="10" font-weight="bold">VITALS</text>
      
      <g transform="translate(10,28)">
        <circle cx="0" cy="0" r="3" fill="#1a7cff"/>
        <text x="10" y="4" fill="#60a5fa" font-size="8">HR: 72</text>
      </g>
      
      <g transform="translate(10,43)">
        <circle cx="0" cy="0" r="3" fill="#1a7cff"/>
        <text x="10" y="4" fill="#60a5fa" font-size="8">Temp: 98.6°F</text>
      </g>
    </g>
    
    <g transform="translate(150,80)">
      <rect x="0" y="0" width="100" height="50" rx="8" stroke="#60a5fa" stroke-width="2" fill="none" opacity="0.6"/>
      <text x="50" y="18" text-anchor="middle" fill="#60a5fa" font-size="10" font-weight="bold">ACTIVITY</text>
      
      <rect x="15" y="25" width="8" height="15" rx="2" fill="#60a5fa" opacity="0.8"/>
      <rect x="30" y="20" width="8" height="20" rx="2" fill="#60a5fa" opacity="0.6"/>
      <rect x="45" y="28" width="8" height="12" rx="2" fill="#60a5fa" opacity="0.8"/>
      <rect x="60" y="22" width="8" height="18" rx="2" fill="#60a5fa" opacity="0.7"/>
      <rect x="75" y="25" width="8" height="15" rx="2" fill="#60a5fa" opacity="0.8"/>
    </g>
  </g>
  
  <g stroke="#60a5fa" stroke-width="1" fill="none" opacity="0.4" stroke-dasharray="3,3">
    <path d="M140,90 L230,35"/>
    <path d="M140,95 L230,105"/>
  </g>
</svg>
