<svg xmlns="http://www.w3.org/2000/svg" viewBox="0 0 400 240">
  <defs>
    <linearGradient id="chatGrad" x1="0" y1="0" x2="1" y2="1">
      <stop offset="0" stop-color="#0A4699"/>
      <stop offset="1" stop-color="#4D99FF"/>
    </linearGradient>
  </defs>
  <rect width="400" height="240" rx="20" fill="url(#chatGrad)" opacity="0.1"/>
  
  <!-- Multiple chat interfaces -->
  <g transform="translate(40,40)">
    <!-- Chat bubble 1 -->
    <rect x="0" y="0" width="100" height="30" rx="15" stroke="#60a5fa" stroke-width="2" fill="none" opacity="0.7"/>
    <text x="50" y="20" text-anchor="middle" fill="#60a5fa" font-size="10" opacity="0.8">Restaurant</text>
    
    <!-- Chat bubble 2 -->
    <rect x="0" y="40" width="120" height="30" rx="15" stroke="#60a5fa" stroke-width="2" fill="none" opacity="0.7"/>
    <text x="60" y="60" text-anchor="middle" fill="#60a5fa" font-size="10" opacity="0.8">Spa &amp; Wellness</text>
    
    <!-- Chat bubble 3 -->
    <rect x="0" y="80" width="90" height="30" rx="15" stroke="#60a5fa" stroke-width="2" fill="none" opacity="0.7"/>
    <text x="45" y="100" text-anchor="middle" fill="#60a5fa" font-size="10" opacity="0.8">Farm Direct</text>
    
    <!-- Template indicators -->
    <g transform="translate(160,10)" fill="#60a5fa" opacity="0.5">
      <rect x="0" y="0" width="120" height="6" rx="3"/>
      <rect x="0" y="15" width="90" height="6" rx="3"/>
      <rect x="0" y="30" width="100" height="6" rx="3"/>
      <rect x="0" y="50" width="110" height="6" rx="3"/>
      <rect x="0" y="65" width="80" height="6" rx="3"/>
      <rect x="0" y="80" width="95" height="6" rx="3"/>
    </g>
  </g>
</svg>