<svg xmlns="http://www.w3.org/2000/svg" viewBox="0 0 400 240">
  <defs>
    <linearGradient id="nanoLongevityGrad" x1="0" y1="0" x2="1" y2="1">
      <stop offset="0" stop-color="#0A4699"/>
      <stop offset="1" stop-color="#4D99FF"/>
    </linearGradient>
  </defs>
  <rect width="400" height="240" rx="20" fill="url(#nanoLongevityGrad)" opacity="0.1"/>
  
  <g transform="translate(40,60)" stroke="#60a5fa" stroke-width="2" fill="none">
    <circle cx="50" cy="50" r="10" fill="#1a7cff" opacity="0.8"/>
    <circle cx="90" cy="30" r="10" fill="#1a7cff" opacity="0.8"/>
    <circle cx="90" cy="70" r="10" fill="#1a7cff" opacity="0.8"/>
    <circle cx="130" cy="50" r="10" fill="#1a7cff" opacity="0.8"/>
    
    <line x1="60" y1="50" x2="80" y2="30"/>
    <line x1="60" y1="50" x2="80" y2="70"/>
    <line x1="100" y1="30" x2="120" y2="50"/>
    <line x1="100" y1="70" x2="120" y2="50"/>
    
    <circle cx="170" cy="30" r="8" fill="#1a7cff" opacity="0.6"/>
    <circle cx="170" cy="70" r="8" fill="#1a7cff" opacity="0.6"/>
    <line x1="140" y1="50" x2="162" y2="30"/>
    <line x1="140" y1="50" x2="162" y2="70"/>
  </g>
  
  <g transform="translate(220,40)">
    <rect x="0" y="0" width="150" height="160" rx="12" stroke="#60a5fa" stroke-width="2" fill="none" opacity="0.6"/>
    <text x="75" y="20" text-anchor="middle" fill="#60a5fa" font-size="12" font-weight="bold">AI PREDICTIONS</text>
    
    <g transform="translate(15,35)" fill="#60a5fa" opacity="0.7">
      <text x="0" y="0" font-size="9" font-weight="bold">Biocompatibility</text>
      <rect x="0" y="5" width="120" height="8" rx="4" opacity="0.3"/>
      <rect x="0" y="5" width="110" height="8" rx="4"/>
      <text x="125" y="12" font-size="8">94.2%</text>
      
      <text x="0" y="28" font-size="9" font-weight="bold">Conductivity</text>
      <rect x="0" y="33" width="120" height="8" rx="4" opacity="0.3"/>
      <rect x="0" y="33" width="95" height="8" rx="4"/>
      <text x="125" y="40" font-size="8">89.1%</text>
      
      <text x="0" y="56" font-size="9" font-weight="bold">Longevity</text>
      <rect x="0" y="61" width="120" height="8" rx="4" opacity="0.3"/>
      <rect x="0" y="61" width="105" height="8" rx="4"/>
      <text x="125" y="68" font-size="8">91.5%</text>
      
      <text x="0" y="84" font-size="9" font-weight="bold">Anti-Fibrotic</text>
      <rect x="0" y="89" width="120" height="8" rx="4" opacity="0.3"/>
      <rect x="0" y="89" width="100" height="8" rx="4"/>
      <text x="125" y="96" font-size="8">87.8%</text>
    </g>
    
    <g transform="translate(0,140)">
      <text x="75" y="0" text-anchor="middle" fill="#60a5fa" font-size="10">Candidates: 5,247</text>
    </g>
  </g>
  
  <g stroke="#60a5fa" stroke-width="1" fill="none" opacity="0.3" stroke-dasharray="3,3">
    <path d="M210,110 L220,110"/>
  </g>
</svg>
