<svg xmlns="http://www.w3.org/2000/svg" viewBox="0 0 800 600">
  <defs>
    <linearGradient id="heroLongevityGrad" x1="0" y1="0" x2="1" y2="1">
      <stop offset="0" stop-color="#0A4699" stop-opacity="0.3"/>
      <stop offset="1" stop-color="#4D99FF" stop-opacity="0.2"/>
    </linearGradient>
    <filter id="healthGlow" x="-50%" y="-50%" width="200%" height="200%">
      <feGaussianBlur stdDeviation="4" result="coloredBlur"/>
      <feMerge>
        <feMergeNode in="coloredBlur"/>
        <feMergeNode in="SourceGraphic"/>
      </feMerge>
    </filter>
  </defs>
  
  <rect width="800" height="600" rx="32" fill="url(#heroLongevityGrad)"/>
  
  <g stroke="#93c5fd" stroke-opacity="0.3" stroke-width="1">
    <defs>
      <pattern id="healthGrid" width="40" height="40" patternUnits="userSpaceOnUse">
        <path d="M 40 0 L 0 0 0 40" fill="none"/>
      </pattern>
    </defs>
    <rect width="800" height="600" fill="url(#healthGrid)"/>
  </g>
  
  <g transform="translate(300,200)">
    <circle cx="100" cy="100" r="80" stroke="#1a7cff" stroke-width="3" fill="none" opacity="0.8" filter="url(#healthGlow)"/>
    <circle cx="100" cy="100" r="60" fill="#1a7cff" opacity="0.2"/>
    
    <g stroke="#60a5fa" stroke-width="2" fill="#1a7cff" opacity="0.8">
      <circle cx="100" cy="40" r="8"/>
      <circle cx="160" cy="100" r="8"/>
      <circle cx="100" cy="160" r="8"/>
      <circle cx="40" cy="100" r="8"/>
    </g>
    
    <path d="M 80,90 L 90,90 L 95,80 L 100,110 L 105,80 L 110,90 L 120,90" 
          stroke="#60a5fa" stroke-width="3" fill="none" opacity="0.9"/>
  </g>
  
  <g stroke="#60a5fa" stroke-width="2" fill="none">
    <rect x="100" y="80" width="120" height="80" rx="12" opacity="0.7"/>
    <text x="160" y="125" text-anchor="middle" fill="#60a5fa" font-size="14" font-weight="bold">TECHNICAL DD</text>
    <path d="M220,120 L280,200" stroke-dasharray="5,5" opacity="0.6"/>
    
    <rect x="580" y="80" width="120" height="80" rx="12" opacity="0.7"/>
    <text x="640" y="125" text-anchor="middle" fill="#60a5fa" font-size="14" font-weight="bold">REGULATORY</text>
    <path d="M580,120 L520,200" stroke-dasharray="5,5" opacity="0.6"/>
    
    <rect x="100" y="440" width="140" height="80" rx="12" opacity="0.7"/>
    <text x="170" y="485" text-anchor="middle" fill="#60a5fa" font-size="14" font-weight="bold">ARCHITECTURE</text>
    <path d="M240,440 L330,320" stroke-dasharray="5,5" opacity="0.6"/>
    
    <rect x="560" y="440" width="140" height="80" rx="12" opacity="0.7"/>
    <text x="630" y="485" text-anchor="middle" fill="#60a5fa" font-size="14" font-weight="bold">ADVISORY</text>
    <path d="M560,480 L470,320" stroke-dasharray="5,5" opacity="0.6"/>
  </g>
  
  <g stroke="#60a5fa" stroke-width="1" fill="none" opacity="0.4">
    <path d="M100,120 Q200,150 280,200" stroke-dasharray="3,3"/>
    <path d="M700,120 Q600,150 520,200" stroke-dasharray="3,3"/>
    <path d="M170,520 Q250,450 330,320" stroke-dasharray="3,3"/>
    <path d="M630,520 Q550,450 470,320" stroke-dasharray="3,3"/>
  </g>
  
  <g fill="#1a7cff" filter="url(#healthGlow)">
    <circle cx="150" cy="200" r="4"/>
    <circle cx="650" cy="220" r="4"/>
    <circle cx="200" cy="400" r="4"/>
    <circle cx="600" cy="380" r="4"/>
    <circle cx="400" cy="100" r="4"/>
    <circle cx="400" cy="500" r="4"/>
  </g>
</svg>
